<svg width="520" height="46" viewBox="0 0 520 46" fill="none" xmlns="http://www.w3.org/2000/svg">
  <path d="M12 23H170" stroke="#8D6237" stroke-width="1.8" stroke-linecap="round" opacity="0.7"/>
  <path d="M350 23H508" stroke="#8D6237" stroke-width="1.8" stroke-linecap="round" opacity="0.7"/>
  <g stroke="#8D6237" stroke-width="1.8" stroke-linecap="round" stroke-linejoin="round" opacity="0.82">
    <path d="M182 23C198 22 208 15 214 8C220 15 232 22 259 23"/>
    <path d="M338 23C322 22 312 15 306 8C300 15 288 22 261 23"/>
    <path d="M214 38C222 31 232 27 260 26C288 27 298 31 306 38"/>
    <path d="M224 23C232 12 244 7 260 7C276 7 288 12 296 23"/>
    <path d="M243 23C248 18 253 16 260 16C267 16 272 18 277 23"/>
  </g>
  <circle cx="260" cy="23" r="4.2" fill="#A97A49"/>
</svg>
