<svg width="1200" height="1600" viewBox="0 0 1200 1600" fill="none" xmlns="http://www.w3.org/2000/svg">
  <defs>
    <filter id="soft" x="-10%" y="-10%" width="120%" height="120%">
      <feGaussianBlur stdDeviation="2.2"/>
    </filter>
  </defs>
  <g opacity="0.7">
    <path d="M102 110C145 84 219 83 289 89C357 95 434 111 599 111C763 111 844 93 914 88C986 83 1056 88 1096 117" stroke="#8A5F37" stroke-width="3.2" stroke-linecap="round"/>
    <path d="M114 1476C158 1505 228 1510 296 1504C369 1498 440 1487 599 1488C756 1489 833 1500 903 1505C981 1511 1043 1505 1087 1476" stroke="#8A5F37" stroke-width="3.2" stroke-linecap="round"/>
    <path d="M92 132C76 212 75 315 79 447C83 595 87 768 79 952C73 1088 73 1254 96 1462" stroke="#8A5F37" stroke-width="3.2" stroke-linecap="round"/>
    <path d="M1108 136C1124 238 1125 336 1119 478C1113 628 1110 802 1118 969C1125 1110 1127 1260 1104 1456" stroke="#8A5F37" stroke-width="3.2" stroke-linecap="round"/>

    <path d="M136 150C196 116 285 127 364 136C448 146 508 161 599 162C694 163 758 145 842 136C917 128 1007 118 1062 151" stroke="#A17249" stroke-width="1.7" stroke-linecap="round" opacity="0.75"/>
    <path d="M139 1452C194 1485 281 1471 359 1462C445 1452 507 1438 599 1437C690 1436 756 1451 839 1461C920 1471 1006 1486 1060 1456" stroke="#A17249" stroke-width="1.7" stroke-linecap="round" opacity="0.75"/>
    <path d="M119 189C105 328 113 458 118 620C123 796 118 982 121 1158C123 1277 126 1363 139 1416" stroke="#A17249" stroke-width="1.7" stroke-linecap="round" opacity="0.75"/>
    <path d="M1081 191C1095 331 1089 468 1083 629C1078 803 1080 987 1078 1160C1077 1276 1074 1361 1061 1416" stroke="#A17249" stroke-width="1.7" stroke-linecap="round" opacity="0.75"/>
  </g>

  <g stroke="#9B7248" stroke-width="2.3" stroke-linecap="round" stroke-linejoin="round" opacity="0.68">
    <path d="M155 178C184 142 219 138 244 182C219 188 200 203 192 230C173 218 160 198 155 178Z"/>
    <path d="M1045 178C1016 142 981 138 956 182C981 188 1000 203 1008 230C1027 218 1040 198 1045 178Z"/>
    <path d="M156 1418C188 1456 225 1458 246 1412C219 1408 198 1391 189 1366C171 1379 160 1398 156 1418Z"/>
    <path d="M1046 1418C1014 1456 977 1458 956 1412C983 1408 1004 1391 1013 1366C1031 1379 1042 1398 1046 1418Z"/>

    <path d="M186 196C207 169 231 170 246 201C228 206 214 221 210 242C195 233 187 214 186 196Z"/>
    <path d="M214 179C236 155 263 157 277 186C261 191 248 205 244 225C227 216 217 198 214 179Z"/>
    <path d="M1014 196C993 169 969 170 954 201C972 206 986 221 990 242C1005 233 1013 214 1014 196Z"/>
    <path d="M986 179C964 155 937 157 923 186C939 191 952 205 956 225C973 216 983 198 986 179Z"/>

    <path d="M182 1404C203 1431 227 1430 242 1399C224 1394 210 1379 206 1358C191 1367 183 1386 182 1404Z"/>
    <path d="M210 1421C232 1445 259 1443 273 1414C257 1409 244 1395 240 1375C223 1384 213 1402 210 1421Z"/>
    <path d="M1018 1404C997 1431 973 1430 958 1399C976 1394 990 1379 994 1358C1009 1367 1017 1386 1018 1404Z"/>
    <path d="M990 1421C968 1445 941 1443 927 1414C943 1409 956 1395 960 1375C977 1384 987 1402 990 1421Z"/>
  </g>

  <g stroke="#8D633D" stroke-width="1.6" stroke-linecap="round" opacity="0.48">
    <path d="M258 118C287 145 303 170 306 212C303 255 286 281 258 309"/>
    <path d="M942 118C913 145 897 170 894 212C897 255 914 281 942 309"/>
    <path d="M258 1482C288 1456 304 1431 307 1388C304 1346 287 1321 258 1293"/>
    <path d="M942 1482C912 1456 896 1431 893 1388C896 1346 913 1321 942 1293"/>
    <path d="M151 414C191 454 199 510 179 572"/>
    <path d="M1049 414C1009 454 1001 510 1021 572"/>
    <path d="M151 1192C193 1156 201 1098 182 1034"/>
    <path d="M1049 1192C1007 1156 999 1098 1018 1034"/>
  </g>

  <g opacity="0.12" filter="url(#soft)">
    <circle cx="205" cy="562" r="22" fill="#986A46"/>
    <circle cx="954" cy="1038" r="26" fill="#986A46"/>
    <circle cx="868" cy="270" r="18" fill="#986A46"/>
    <circle cx="322" cy="1310" r="15" fill="#986A46"/>
    <circle cx="1040" cy="760" r="20" fill="#986A46"/>
    <circle cx="144" cy="922" r="17" fill="#986A46"/>
  </g>
</svg>
